<mxfile host="app.diagrams.net" modified="2023-06-08T02:11:59.941Z" agent="Mozilla/5.0 (Windows NT 10.0; Win64; x64) AppleWebKit/537.36 (KHTML, like Gecko) Chrome/114.0.0.0 Safari/537.36" etag="-x5HGNSFqP-V-54u-ezm" version="21.3.7" type="device">
  <diagram name="PÃ¡gina-1" id="8mfXDWmP8JvSEiQNWgrG">
    <mxGraphModel dx="1877" dy="1718" grid="1" gridSize="10" guides="1" tooltips="1" connect="1" arrows="1" fold="1" page="1" pageScale="1" pageWidth="827" pageHeight="1169" math="0" shadow="0">
      <root>
        <mxCell id="0" />
        <mxCell id="1" parent="0" />
        <mxCell id="Tdp-Z54inAdNcihTfjA5-42" value="" style="edgeStyle=orthogonalEdgeStyle;rounded=0;orthogonalLoop=1;jettySize=auto;html=1;" parent="1" source="Tdp-Z54inAdNcihTfjA5-2" target="Tdp-Z54inAdNcihTfjA5-41" edge="1">
          <mxGeometry relative="1" as="geometry" />
        </mxCell>
        <mxCell id="Tdp-Z54inAdNcihTfjA5-2" value="0&amp;nbsp; 0&amp;nbsp; 0&amp;nbsp; &amp;nbsp;0&amp;nbsp; &amp;nbsp;0&amp;nbsp; &amp;nbsp;0&amp;nbsp; &amp;nbsp;0&amp;nbsp; &amp;nbsp;0 | 0" style="rounded=0;whiteSpace=wrap;html=1;fontSize=18;" parent="1" vertex="1">
          <mxGeometry x="348" y="30" width="244" height="30" as="geometry" />
        </mxCell>
        <mxCell id="Tdp-Z54inAdNcihTfjA5-13" value="" style="edgeStyle=orthogonalEdgeStyle;rounded=0;orthogonalLoop=1;jettySize=auto;html=1;" parent="1" source="Tdp-Z54inAdNcihTfjA5-6" target="Tdp-Z54inAdNcihTfjA5-12" edge="1">
          <mxGeometry relative="1" as="geometry" />
        </mxCell>
        <mxCell id="Tdp-Z54inAdNcihTfjA5-21" style="edgeStyle=orthogonalEdgeStyle;rounded=0;orthogonalLoop=1;jettySize=auto;html=1;entryX=1;entryY=0.5;entryDx=0;entryDy=0;" parent="1" source="Tdp-Z54inAdNcihTfjA5-6" target="Tdp-Z54inAdNcihTfjA5-19" edge="1">
          <mxGeometry relative="1" as="geometry" />
        </mxCell>
        <mxCell id="Tdp-Z54inAdNcihTfjA5-6" value="&lt;font style=&quot;font-size: 18px;&quot;&gt;S2&lt;/font&gt;" style="rhombus;whiteSpace=wrap;html=1;" parent="1" vertex="1">
          <mxGeometry x="430" y="460" width="80" height="80" as="geometry" />
        </mxCell>
        <mxCell id="Tdp-Z54inAdNcihTfjA5-11" value="&lt;font style=&quot;font-size: 15px;&quot;&gt;ST&amp;nbsp; NC&amp;nbsp; T2&amp;nbsp; M&amp;nbsp; V&amp;nbsp; ST2&amp;nbsp; ST1&amp;nbsp; ST0&lt;/font&gt;" style="text;strokeColor=none;align=center;fillColor=none;html=1;verticalAlign=middle;whiteSpace=wrap;rounded=0;" parent="1" vertex="1">
          <mxGeometry x="325" y="-50" width="238" height="40" as="geometry" />
        </mxCell>
        <mxCell id="AviYknSwdxqlnNg75itp-2" value="" style="edgeStyle=orthogonalEdgeStyle;rounded=0;orthogonalLoop=1;jettySize=auto;html=1;" parent="1" source="Tdp-Z54inAdNcihTfjA5-12" target="AviYknSwdxqlnNg75itp-1" edge="1">
          <mxGeometry relative="1" as="geometry" />
        </mxCell>
        <mxCell id="Tdp-Z54inAdNcihTfjA5-12" value="0&amp;nbsp; 0&amp;nbsp; 0&amp;nbsp; &amp;nbsp;0&amp;nbsp; &amp;nbsp;0&amp;nbsp; &amp;nbsp;0&amp;nbsp; &amp;nbsp;0&amp;nbsp; &amp;nbsp; 0 | 3" style="rounded=0;whiteSpace=wrap;html=1;fontSize=18;" parent="1" vertex="1">
          <mxGeometry x="348.5" y="570" width="243.5" height="40" as="geometry" />
        </mxCell>
        <mxCell id="Tdp-Z54inAdNcihTfjA5-15" value="0" style="text;strokeColor=none;align=center;fillColor=none;html=1;verticalAlign=middle;whiteSpace=wrap;rounded=0;fontSize=18;" parent="1" vertex="1">
          <mxGeometry x="340" y="470" width="60" height="30" as="geometry" />
        </mxCell>
        <mxCell id="Tdp-Z54inAdNcihTfjA5-35" value="" style="edgeStyle=orthogonalEdgeStyle;rounded=0;orthogonalLoop=1;jettySize=auto;html=1;" parent="1" source="Tdp-Z54inAdNcihTfjA5-17" target="Tdp-Z54inAdNcihTfjA5-34" edge="1">
          <mxGeometry relative="1" as="geometry" />
        </mxCell>
        <mxCell id="Tdp-Z54inAdNcihTfjA5-17" value="&lt;font style=&quot;font-size: 18px;&quot;&gt;0&amp;nbsp; 0&amp;nbsp; 0&amp;nbsp; &amp;nbsp;1&amp;nbsp; &amp;nbsp;0&amp;nbsp; &amp;nbsp;0&amp;nbsp; 1&amp;nbsp; &amp;nbsp;1 | 14&lt;/font&gt;" style="whiteSpace=wrap;html=1;" parent="1" vertex="1">
          <mxGeometry x="-330" y="330" width="220" height="50" as="geometry" />
        </mxCell>
        <mxCell id="Tdp-Z54inAdNcihTfjA5-23" value="" style="edgeStyle=orthogonalEdgeStyle;rounded=0;orthogonalLoop=1;jettySize=auto;html=1;" parent="1" source="Tdp-Z54inAdNcihTfjA5-19" target="Tdp-Z54inAdNcihTfjA5-22" edge="1">
          <mxGeometry relative="1" as="geometry" />
        </mxCell>
        <mxCell id="Tdp-Z54inAdNcihTfjA5-19" value="0&amp;nbsp; 0&amp;nbsp; 0&amp;nbsp; 0&amp;nbsp; &amp;nbsp;0&amp;nbsp; &amp;nbsp;0&amp;nbsp; &amp;nbsp;0&amp;nbsp; &amp;nbsp; 0 | 12" style="rounded=0;whiteSpace=wrap;html=1;fontSize=18;" parent="1" vertex="1">
          <mxGeometry x="-335" y="130" width="230" height="45" as="geometry" />
        </mxCell>
        <mxCell id="Tdp-Z54inAdNcihTfjA5-24" style="edgeStyle=orthogonalEdgeStyle;rounded=0;orthogonalLoop=1;jettySize=auto;html=1;entryX=0.5;entryY=0;entryDx=0;entryDy=0;" parent="1" source="Tdp-Z54inAdNcihTfjA5-22" target="Tdp-Z54inAdNcihTfjA5-17" edge="1">
          <mxGeometry relative="1" as="geometry" />
        </mxCell>
        <mxCell id="Tdp-Z54inAdNcihTfjA5-32" value="" style="edgeStyle=orthogonalEdgeStyle;rounded=0;orthogonalLoop=1;jettySize=auto;html=1;" parent="1" source="Tdp-Z54inAdNcihTfjA5-22" target="Tdp-Z54inAdNcihTfjA5-31" edge="1">
          <mxGeometry relative="1" as="geometry" />
        </mxCell>
        <mxCell id="Tdp-Z54inAdNcihTfjA5-22" value="MSA" style="rhombus;whiteSpace=wrap;html=1;fontSize=18;rounded=0;" parent="1" vertex="1">
          <mxGeometry x="-260" y="210" width="80" height="80" as="geometry" />
        </mxCell>
        <mxCell id="Tdp-Z54inAdNcihTfjA5-26" value="&lt;font style=&quot;font-size: 18px;&quot;&gt;1&lt;/font&gt;" style="text;strokeColor=none;align=center;fillColor=none;html=1;verticalAlign=middle;whiteSpace=wrap;rounded=0;" parent="1" vertex="1">
          <mxGeometry x="-330" y="220" width="60" height="30" as="geometry" />
        </mxCell>
        <mxCell id="Tdp-Z54inAdNcihTfjA5-27" value="&lt;font style=&quot;font-size: 18px;&quot;&gt;0&lt;/font&gt;" style="text;strokeColor=none;align=center;fillColor=none;html=1;verticalAlign=middle;whiteSpace=wrap;rounded=0;fontSize=18;" parent="1" vertex="1">
          <mxGeometry x="-260" y="290" width="60" height="30" as="geometry" />
        </mxCell>
        <mxCell id="Tdp-Z54inAdNcihTfjA5-33" style="edgeStyle=orthogonalEdgeStyle;rounded=0;orthogonalLoop=1;jettySize=auto;html=1;entryX=0;entryY=0.5;entryDx=0;entryDy=0;" parent="1" source="Tdp-Z54inAdNcihTfjA5-31" target="Tdp-Z54inAdNcihTfjA5-2" edge="1">
          <mxGeometry relative="1" as="geometry">
            <Array as="points">
              <mxPoint x="-600" y="250" />
              <mxPoint x="-600" y="45" />
            </Array>
          </mxGeometry>
        </mxCell>
        <mxCell id="Tdp-Z54inAdNcihTfjA5-31" value="0&amp;nbsp; 0&amp;nbsp; 0&amp;nbsp; &amp;nbsp;0&amp;nbsp; &amp;nbsp;0&amp;nbsp; &amp;nbsp;1&amp;nbsp; &amp;nbsp;0&amp;nbsp; &amp;nbsp; 0 | 13" style="whiteSpace=wrap;html=1;fontSize=18;rounded=0;" parent="1" vertex="1">
          <mxGeometry x="-570" y="230" width="230" height="40" as="geometry" />
        </mxCell>
        <mxCell id="Tdp-Z54inAdNcihTfjA5-36" style="edgeStyle=orthogonalEdgeStyle;rounded=0;orthogonalLoop=1;jettySize=auto;html=1;entryX=0;entryY=0.5;entryDx=0;entryDy=0;" parent="1" source="Tdp-Z54inAdNcihTfjA5-34" target="Tdp-Z54inAdNcihTfjA5-17" edge="1">
          <mxGeometry relative="1" as="geometry">
            <Array as="points">
              <mxPoint x="-350" y="455" />
              <mxPoint x="-350" y="355" />
            </Array>
          </mxGeometry>
        </mxCell>
        <mxCell id="Tdp-Z54inAdNcihTfjA5-39" value="" style="edgeStyle=orthogonalEdgeStyle;rounded=0;orthogonalLoop=1;jettySize=auto;html=1;" parent="1" source="Tdp-Z54inAdNcihTfjA5-34" target="Tdp-Z54inAdNcihTfjA5-38" edge="1">
          <mxGeometry relative="1" as="geometry" />
        </mxCell>
        <mxCell id="Tdp-Z54inAdNcihTfjA5-34" value="&lt;font style=&quot;font-size: 18px;&quot;&gt;S2&lt;/font&gt;" style="rhombus;whiteSpace=wrap;html=1;" parent="1" vertex="1">
          <mxGeometry x="-280" y="415" width="80" height="80" as="geometry" />
        </mxCell>
        <mxCell id="Tdp-Z54inAdNcihTfjA5-37" value="&lt;font style=&quot;font-size: 18px;&quot;&gt;0&lt;/font&gt;" style="text;strokeColor=none;align=center;fillColor=none;html=1;verticalAlign=middle;whiteSpace=wrap;rounded=0;" parent="1" vertex="1">
          <mxGeometry x="-340" y="430" width="60" height="30" as="geometry" />
        </mxCell>
        <mxCell id="aMUW2iO1xXG_d0LfAeFW-4" value="" style="edgeStyle=orthogonalEdgeStyle;rounded=0;orthogonalLoop=1;jettySize=auto;html=1;" parent="1" source="Tdp-Z54inAdNcihTfjA5-38" target="aMUW2iO1xXG_d0LfAeFW-3" edge="1">
          <mxGeometry relative="1" as="geometry" />
        </mxCell>
        <mxCell id="Tdp-Z54inAdNcihTfjA5-38" value="&lt;font style=&quot;font-size: 18px;&quot;&gt;0&amp;nbsp; 0&amp;nbsp; 0&amp;nbsp; 1&amp;nbsp; 1&amp;nbsp; 0&amp;nbsp; 1&amp;nbsp; 0 | 15&lt;/font&gt;&amp;nbsp;" style="whiteSpace=wrap;html=1;" parent="1" vertex="1">
          <mxGeometry x="-360" y="520" width="240" height="40" as="geometry" />
        </mxCell>
        <mxCell id="Tdp-Z54inAdNcihTfjA5-40" value="&lt;font style=&quot;font-size: 18px;&quot;&gt;1&lt;/font&gt;" style="text;strokeColor=none;align=center;fillColor=none;html=1;verticalAlign=middle;whiteSpace=wrap;rounded=0;fontSize=18;" parent="1" vertex="1">
          <mxGeometry x="-250" y="495" width="60" height="30" as="geometry" />
        </mxCell>
        <mxCell id="Tdp-Z54inAdNcihTfjA5-51" value="" style="edgeStyle=orthogonalEdgeStyle;rounded=0;orthogonalLoop=1;jettySize=auto;html=1;" parent="1" source="Tdp-Z54inAdNcihTfjA5-41" target="Tdp-Z54inAdNcihTfjA5-50" edge="1">
          <mxGeometry relative="1" as="geometry" />
        </mxCell>
        <mxCell id="Tdp-Z54inAdNcihTfjA5-57" style="edgeStyle=orthogonalEdgeStyle;rounded=0;orthogonalLoop=1;jettySize=auto;html=1;entryX=1;entryY=0.5;entryDx=0;entryDy=0;" parent="1" source="Tdp-Z54inAdNcihTfjA5-41" target="Tdp-Z54inAdNcihTfjA5-2" edge="1">
          <mxGeometry relative="1" as="geometry">
            <mxPoint x="640" y="50" as="targetPoint" />
            <Array as="points">
              <mxPoint x="650" y="140" />
              <mxPoint x="650" y="45" />
            </Array>
          </mxGeometry>
        </mxCell>
        <mxCell id="Tdp-Z54inAdNcihTfjA5-41" value="SH1" style="rhombus;whiteSpace=wrap;html=1;fontSize=18;rounded=0;" parent="1" vertex="1">
          <mxGeometry x="430" y="100" width="80" height="80" as="geometry" />
        </mxCell>
        <mxCell id="Tdp-Z54inAdNcihTfjA5-44" value="1" style="text;strokeColor=none;align=center;fillColor=none;html=1;verticalAlign=middle;whiteSpace=wrap;rounded=0;fontSize=18;" parent="1" vertex="1">
          <mxGeometry x="530" y="115" width="60" height="30" as="geometry" />
        </mxCell>
        <mxCell id="Tdp-Z54inAdNcihTfjA5-48" value="&lt;font style=&quot;font-size: 18px;&quot;&gt;0&lt;/font&gt;" style="text;strokeColor=none;align=center;fillColor=none;html=1;verticalAlign=middle;whiteSpace=wrap;rounded=0;fontSize=18;" parent="1" vertex="1">
          <mxGeometry x="430" y="175" width="60" height="30" as="geometry" />
        </mxCell>
        <mxCell id="Tdp-Z54inAdNcihTfjA5-53" value="" style="edgeStyle=orthogonalEdgeStyle;rounded=0;orthogonalLoop=1;jettySize=auto;html=1;" parent="1" source="Tdp-Z54inAdNcihTfjA5-50" target="Tdp-Z54inAdNcihTfjA5-52" edge="1">
          <mxGeometry relative="1" as="geometry" />
        </mxCell>
        <mxCell id="Tdp-Z54inAdNcihTfjA5-50" value="0&amp;nbsp; 0&amp;nbsp; 0&amp;nbsp; 0&amp;nbsp; 0&amp;nbsp; 0&amp;nbsp; 0&amp;nbsp; 0 | 1" style="whiteSpace=wrap;html=1;fontSize=18;rounded=0;" parent="1" vertex="1">
          <mxGeometry x="377" y="210" width="186" height="40" as="geometry" />
        </mxCell>
        <mxCell id="Tdp-Z54inAdNcihTfjA5-55" style="edgeStyle=orthogonalEdgeStyle;rounded=0;orthogonalLoop=1;jettySize=auto;html=1;entryX=0.869;entryY=0;entryDx=0;entryDy=0;entryPerimeter=0;" parent="1" source="Tdp-Z54inAdNcihTfjA5-52" target="Tdp-Z54inAdNcihTfjA5-2" edge="1">
          <mxGeometry relative="1" as="geometry">
            <mxPoint x="560" as="targetPoint" />
            <Array as="points">
              <mxPoint x="690" y="305" />
              <mxPoint x="690" y="-10" />
              <mxPoint x="560" y="-10" />
            </Array>
          </mxGeometry>
        </mxCell>
        <mxCell id="Tdp-Z54inAdNcihTfjA5-60" value="" style="edgeStyle=orthogonalEdgeStyle;rounded=0;orthogonalLoop=1;jettySize=auto;html=1;entryX=0.5;entryY=0;entryDx=0;entryDy=0;" parent="1" source="Tdp-Z54inAdNcihTfjA5-52" target="Tdp-Z54inAdNcihTfjA5-62" edge="1">
          <mxGeometry relative="1" as="geometry">
            <mxPoint x="470" y="370" as="targetPoint" />
          </mxGeometry>
        </mxCell>
        <mxCell id="Tdp-Z54inAdNcihTfjA5-52" value="SC" style="rhombus;whiteSpace=wrap;html=1;fontSize=18;rounded=0;" parent="1" vertex="1">
          <mxGeometry x="430" y="265" width="80" height="80" as="geometry" />
        </mxCell>
        <mxCell id="Tdp-Z54inAdNcihTfjA5-58" value="1" style="text;strokeColor=none;align=center;fillColor=none;html=1;verticalAlign=middle;whiteSpace=wrap;rounded=0;fontSize=18;" parent="1" vertex="1">
          <mxGeometry x="520" y="280" width="60" height="30" as="geometry" />
        </mxCell>
        <mxCell id="Tdp-Z54inAdNcihTfjA5-61" value="&lt;font style=&quot;font-size: 18px;&quot;&gt;0&lt;/font&gt;" style="text;strokeColor=none;align=center;fillColor=none;html=1;verticalAlign=middle;whiteSpace=wrap;rounded=0;fontSize=18;" parent="1" vertex="1">
          <mxGeometry x="460" y="340" width="60" height="30" as="geometry" />
        </mxCell>
        <mxCell id="Tdp-Z54inAdNcihTfjA5-63" value="" style="edgeStyle=orthogonalEdgeStyle;rounded=0;orthogonalLoop=1;jettySize=auto;html=1;" parent="1" source="Tdp-Z54inAdNcihTfjA5-62" target="Tdp-Z54inAdNcihTfjA5-6" edge="1">
          <mxGeometry relative="1" as="geometry" />
        </mxCell>
        <mxCell id="Tdp-Z54inAdNcihTfjA5-62" value="0&amp;nbsp; 0&amp;nbsp; 0&amp;nbsp; 0&amp;nbsp; 0&amp;nbsp; 0&amp;nbsp; 0&amp;nbsp; 0 | 2" style="whiteSpace=wrap;html=1;fontSize=18;rounded=0;" parent="1" vertex="1">
          <mxGeometry x="377" y="370" width="186" height="40" as="geometry" />
        </mxCell>
        <mxCell id="Tdp-Z54inAdNcihTfjA5-64" value="1" style="text;strokeColor=none;align=center;fillColor=none;html=1;verticalAlign=middle;whiteSpace=wrap;rounded=0;fontSize=18;" parent="1" vertex="1">
          <mxGeometry x="460" y="540" width="60" height="30" as="geometry" />
        </mxCell>
        <mxCell id="AviYknSwdxqlnNg75itp-3" style="edgeStyle=orthogonalEdgeStyle;rounded=0;orthogonalLoop=1;jettySize=auto;html=1;entryX=1;entryY=0.5;entryDx=0;entryDy=0;" parent="1" source="AviYknSwdxqlnNg75itp-1" target="Tdp-Z54inAdNcihTfjA5-38" edge="1">
          <mxGeometry relative="1" as="geometry">
            <mxPoint x="280" y="540" as="targetPoint" />
            <Array as="points">
              <mxPoint x="290" y="695" />
              <mxPoint x="290" y="540" />
            </Array>
          </mxGeometry>
        </mxCell>
        <mxCell id="AviYknSwdxqlnNg75itp-6" value="" style="edgeStyle=orthogonalEdgeStyle;rounded=0;orthogonalLoop=1;jettySize=auto;html=1;" parent="1" source="AviYknSwdxqlnNg75itp-1" target="AviYknSwdxqlnNg75itp-5" edge="1">
          <mxGeometry relative="1" as="geometry" />
        </mxCell>
        <mxCell id="AviYknSwdxqlnNg75itp-1" value="S1" style="rhombus;whiteSpace=wrap;html=1;fontSize=18;rounded=0;" parent="1" vertex="1">
          <mxGeometry x="430" y="655" width="80" height="80" as="geometry" />
        </mxCell>
        <mxCell id="AviYknSwdxqlnNg75itp-4" value="0" style="text;strokeColor=none;align=center;fillColor=none;html=1;verticalAlign=middle;whiteSpace=wrap;rounded=0;fontSize=18;" parent="1" vertex="1">
          <mxGeometry x="348" y="670" width="60" height="30" as="geometry" />
        </mxCell>
        <mxCell id="AviYknSwdxqlnNg75itp-8" value="" style="edgeStyle=orthogonalEdgeStyle;rounded=0;orthogonalLoop=1;jettySize=auto;html=1;" parent="1" source="AviYknSwdxqlnNg75itp-5" target="AviYknSwdxqlnNg75itp-7" edge="1">
          <mxGeometry relative="1" as="geometry" />
        </mxCell>
        <mxCell id="AviYknSwdxqlnNg75itp-5" value="0&amp;nbsp; 0&amp;nbsp; 1&amp;nbsp; 0&amp;nbsp; 1&amp;nbsp; 0&amp;nbsp; 0&amp;nbsp; 1 | 4" style="whiteSpace=wrap;html=1;fontSize=18;rounded=0;" parent="1" vertex="1">
          <mxGeometry x="370" y="770" width="200" height="30" as="geometry" />
        </mxCell>
        <mxCell id="AviYknSwdxqlnNg75itp-11" value="" style="edgeStyle=orthogonalEdgeStyle;rounded=0;orthogonalLoop=1;jettySize=auto;html=1;" parent="1" source="AviYknSwdxqlnNg75itp-7" target="AviYknSwdxqlnNg75itp-10" edge="1">
          <mxGeometry relative="1" as="geometry" />
        </mxCell>
        <mxCell id="AviYknSwdxqlnNg75itp-12" style="edgeStyle=orthogonalEdgeStyle;rounded=0;orthogonalLoop=1;jettySize=auto;html=1;entryX=0;entryY=0.25;entryDx=0;entryDy=0;" parent="1" source="AviYknSwdxqlnNg75itp-7" target="AviYknSwdxqlnNg75itp-5" edge="1">
          <mxGeometry relative="1" as="geometry">
            <mxPoint x="320" y="780" as="targetPoint" />
            <Array as="points">
              <mxPoint x="300" y="870" />
              <mxPoint x="300" y="778" />
              <mxPoint x="360" y="778" />
            </Array>
          </mxGeometry>
        </mxCell>
        <mxCell id="AviYknSwdxqlnNg75itp-7" value="Tout2" style="rhombus;whiteSpace=wrap;html=1;fontSize=18;rounded=0;" parent="1" vertex="1">
          <mxGeometry x="430" y="830" width="80" height="80" as="geometry" />
        </mxCell>
        <mxCell id="AviYknSwdxqlnNg75itp-9" value="1" style="text;strokeColor=none;align=center;fillColor=none;html=1;verticalAlign=middle;whiteSpace=wrap;rounded=0;fontSize=18;" parent="1" vertex="1">
          <mxGeometry x="460" y="730" width="60" height="30" as="geometry" />
        </mxCell>
        <mxCell id="AviYknSwdxqlnNg75itp-16" value="" style="edgeStyle=orthogonalEdgeStyle;rounded=0;orthogonalLoop=1;jettySize=auto;html=1;" parent="1" source="AviYknSwdxqlnNg75itp-10" target="AviYknSwdxqlnNg75itp-15" edge="1">
          <mxGeometry relative="1" as="geometry" />
        </mxCell>
        <mxCell id="AviYknSwdxqlnNg75itp-10" value="0&amp;nbsp; 0&amp;nbsp; 0&amp;nbsp; 0&amp;nbsp; 1&amp;nbsp; 0&amp;nbsp; 0&amp;nbsp; 1&amp;nbsp;&amp;nbsp;| 5" style="whiteSpace=wrap;html=1;fontSize=18;rounded=0;" parent="1" vertex="1">
          <mxGeometry x="365" y="940" width="210" height="40" as="geometry" />
        </mxCell>
        <mxCell id="AviYknSwdxqlnNg75itp-13" value="0" style="text;strokeColor=none;align=center;fillColor=none;html=1;verticalAlign=middle;whiteSpace=wrap;rounded=0;fontSize=18;" parent="1" vertex="1">
          <mxGeometry x="280" y="820" width="60" height="30" as="geometry" />
        </mxCell>
        <mxCell id="AviYknSwdxqlnNg75itp-14" value="1" style="text;strokeColor=none;align=center;fillColor=none;html=1;verticalAlign=middle;whiteSpace=wrap;rounded=0;fontSize=18;" parent="1" vertex="1">
          <mxGeometry x="470" y="910" width="60" height="30" as="geometry" />
        </mxCell>
        <mxCell id="AviYknSwdxqlnNg75itp-18" value="" style="edgeStyle=orthogonalEdgeStyle;rounded=0;orthogonalLoop=1;jettySize=auto;html=1;" parent="1" source="AviYknSwdxqlnNg75itp-15" target="AviYknSwdxqlnNg75itp-17" edge="1">
          <mxGeometry relative="1" as="geometry" />
        </mxCell>
        <mxCell id="AviYknSwdxqlnNg75itp-31" value="" style="edgeStyle=orthogonalEdgeStyle;rounded=0;orthogonalLoop=1;jettySize=auto;html=1;" parent="1" source="AviYknSwdxqlnNg75itp-15" target="AviYknSwdxqlnNg75itp-30" edge="1">
          <mxGeometry relative="1" as="geometry" />
        </mxCell>
        <mxCell id="AviYknSwdxqlnNg75itp-15" value="SH2" style="rhombus;whiteSpace=wrap;html=1;fontSize=18;rounded=0;" parent="1" vertex="1">
          <mxGeometry x="430" y="1010" width="80" height="80" as="geometry" />
        </mxCell>
        <mxCell id="AviYknSwdxqlnNg75itp-21" value="" style="edgeStyle=orthogonalEdgeStyle;rounded=0;orthogonalLoop=1;jettySize=auto;html=1;" parent="1" source="AviYknSwdxqlnNg75itp-17" target="AviYknSwdxqlnNg75itp-20" edge="1">
          <mxGeometry relative="1" as="geometry" />
        </mxCell>
        <mxCell id="AviYknSwdxqlnNg75itp-17" value="0&amp;nbsp; 0&amp;nbsp; 0&amp;nbsp; 0&amp;nbsp; 1&amp;nbsp; 0&amp;nbsp; 0&amp;nbsp; 1&amp;nbsp;&amp;nbsp;| 6" style="whiteSpace=wrap;html=1;fontSize=18;rounded=0;" parent="1" vertex="1">
          <mxGeometry x="367.5" y="1150" width="205" height="40" as="geometry" />
        </mxCell>
        <mxCell id="AviYknSwdxqlnNg75itp-19" value="0" style="text;strokeColor=none;align=center;fillColor=none;html=1;verticalAlign=middle;whiteSpace=wrap;rounded=0;fontSize=18;" parent="1" vertex="1">
          <mxGeometry x="460" y="1100" width="60" height="30" as="geometry" />
        </mxCell>
        <mxCell id="AviYknSwdxqlnNg75itp-23" value="" style="edgeStyle=orthogonalEdgeStyle;rounded=0;orthogonalLoop=1;jettySize=auto;html=1;" parent="1" source="AviYknSwdxqlnNg75itp-20" target="AviYknSwdxqlnNg75itp-22" edge="1">
          <mxGeometry relative="1" as="geometry" />
        </mxCell>
        <mxCell id="AviYknSwdxqlnNg75itp-25" value="" style="edgeStyle=orthogonalEdgeStyle;rounded=0;orthogonalLoop=1;jettySize=auto;html=1;" parent="1" source="AviYknSwdxqlnNg75itp-20" target="AviYknSwdxqlnNg75itp-24" edge="1">
          <mxGeometry relative="1" as="geometry" />
        </mxCell>
        <mxCell id="AviYknSwdxqlnNg75itp-20" value="SH1" style="rhombus;whiteSpace=wrap;html=1;fontSize=18;rounded=0;" parent="1" vertex="1">
          <mxGeometry x="430" y="1250" width="80" height="80" as="geometry" />
        </mxCell>
        <mxCell id="AviYknSwdxqlnNg75itp-29" style="edgeStyle=orthogonalEdgeStyle;rounded=0;orthogonalLoop=1;jettySize=auto;html=1;exitX=1;exitY=0.5;exitDx=0;exitDy=0;entryX=0.873;entryY=0;entryDx=0;entryDy=0;entryPerimeter=0;" parent="1" source="AviYknSwdxqlnNg75itp-22" target="Tdp-Z54inAdNcihTfjA5-2" edge="1">
          <mxGeometry relative="1" as="geometry">
            <mxPoint x="610" y="-10" as="targetPoint" />
            <Array as="points">
              <mxPoint x="770" y="1420" />
              <mxPoint x="770" y="-10" />
              <mxPoint x="561" y="-10" />
            </Array>
          </mxGeometry>
        </mxCell>
        <mxCell id="dG1vp18cjvT6daIUe9hR-1" style="edgeStyle=orthogonalEdgeStyle;rounded=0;orthogonalLoop=1;jettySize=auto;html=1;" parent="1" source="AviYknSwdxqlnNg75itp-22" target="Tdp-Z54inAdNcihTfjA5-2" edge="1">
          <mxGeometry relative="1" as="geometry">
            <mxPoint x="560" y="-90" as="targetPoint" />
            <Array as="points">
              <mxPoint x="470" y="1490" />
              <mxPoint x="810" y="1490" />
              <mxPoint x="810" y="-10" />
              <mxPoint x="560" y="-10" />
            </Array>
          </mxGeometry>
        </mxCell>
        <mxCell id="AviYknSwdxqlnNg75itp-22" value="0&amp;nbsp; 0&amp;nbsp; 0&amp;nbsp; 0&amp;nbsp; 1&amp;nbsp; 1&amp;nbsp; 1&amp;nbsp; 0&amp;nbsp;&amp;nbsp;| 8&amp;nbsp;" style="whiteSpace=wrap;html=1;fontSize=18;rounded=0;" parent="1" vertex="1">
          <mxGeometry x="365" y="1400" width="210" height="40" as="geometry" />
        </mxCell>
        <mxCell id="AviYknSwdxqlnNg75itp-28" style="edgeStyle=orthogonalEdgeStyle;rounded=0;orthogonalLoop=1;jettySize=auto;html=1;exitX=1;exitY=0.5;exitDx=0;exitDy=0;entryX=0.869;entryY=0;entryDx=0;entryDy=0;entryPerimeter=0;" parent="1" source="AviYknSwdxqlnNg75itp-24" target="Tdp-Z54inAdNcihTfjA5-2" edge="1">
          <mxGeometry relative="1" as="geometry">
            <mxPoint x="690" y="4" as="targetPoint" />
            <Array as="points">
              <mxPoint x="750" y="1290" />
              <mxPoint x="750" y="632" />
              <mxPoint x="690" y="632" />
              <mxPoint x="690" y="-10" />
              <mxPoint x="560" y="-10" />
            </Array>
          </mxGeometry>
        </mxCell>
        <mxCell id="AviYknSwdxqlnNg75itp-24" value="0&amp;nbsp; 0&amp;nbsp; 0&amp;nbsp; 0&amp;nbsp; 1&amp;nbsp; 1&amp;nbsp; 0&amp;nbsp; 1&amp;nbsp;&amp;nbsp;| 7&amp;nbsp;" style="whiteSpace=wrap;html=1;fontSize=18;rounded=0;" parent="1" vertex="1">
          <mxGeometry x="550" y="1260" width="190" height="60" as="geometry" />
        </mxCell>
        <mxCell id="AviYknSwdxqlnNg75itp-26" value="0" style="text;strokeColor=none;align=center;fillColor=none;html=1;verticalAlign=middle;whiteSpace=wrap;rounded=0;fontSize=18;" parent="1" vertex="1">
          <mxGeometry x="503" y="1260" width="60" height="30" as="geometry" />
        </mxCell>
        <mxCell id="AviYknSwdxqlnNg75itp-27" value="1" style="text;strokeColor=none;align=center;fillColor=none;html=1;verticalAlign=middle;whiteSpace=wrap;rounded=0;fontSize=18;" parent="1" vertex="1">
          <mxGeometry x="414" y="1370" width="60" height="30" as="geometry" />
        </mxCell>
        <mxCell id="WEo1hAUWuw4E-SvqwvUK-4" style="edgeStyle=orthogonalEdgeStyle;rounded=0;orthogonalLoop=1;jettySize=auto;html=1;exitX=0.5;exitY=1;exitDx=0;exitDy=0;entryX=0.5;entryY=0;entryDx=0;entryDy=0;" parent="1" source="AviYknSwdxqlnNg75itp-30" target="WEo1hAUWuw4E-SvqwvUK-1" edge="1">
          <mxGeometry relative="1" as="geometry" />
        </mxCell>
        <mxCell id="AviYknSwdxqlnNg75itp-30" value="1&amp;nbsp; 0&amp;nbsp; 0&amp;nbsp; 0&amp;nbsp; 1&amp;nbsp; 0&amp;nbsp; 0&amp;nbsp; 1&amp;nbsp;&amp;nbsp;| 9&amp;nbsp;" style="whiteSpace=wrap;html=1;fontSize=18;rounded=0;" parent="1" vertex="1">
          <mxGeometry x="130" y="1030" width="220" height="40" as="geometry" />
        </mxCell>
        <mxCell id="AviYknSwdxqlnNg75itp-32" value="1" style="text;strokeColor=none;align=center;fillColor=none;html=1;verticalAlign=middle;whiteSpace=wrap;rounded=0;fontSize=18;" parent="1" vertex="1">
          <mxGeometry x="385" y="1020" width="60" height="30" as="geometry" />
        </mxCell>
        <mxCell id="x4oSmUCFtUbBl051vg65-11" style="edgeStyle=orthogonalEdgeStyle;rounded=0;orthogonalLoop=1;jettySize=auto;html=1;exitX=0.5;exitY=1;exitDx=0;exitDy=0;" parent="1" source="x4oSmUCFtUbBl051vg65-1" target="Tdp-Z54inAdNcihTfjA5-2" edge="1">
          <mxGeometry relative="1" as="geometry">
            <mxPoint x="560" y="-10" as="targetPoint" />
            <Array as="points">
              <mxPoint x="240" y="1470" />
              <mxPoint x="770" y="1470" />
              <mxPoint x="770" y="-10" />
              <mxPoint x="560" y="-10" />
            </Array>
            <mxPoint x="240" y="1360" as="sourcePoint" />
          </mxGeometry>
        </mxCell>
        <mxCell id="WEo1hAUWuw4E-SvqwvUK-10" style="edgeStyle=orthogonalEdgeStyle;rounded=0;orthogonalLoop=1;jettySize=auto;html=1;exitX=0;exitY=0.5;exitDx=0;exitDy=0;entryX=0.5;entryY=0;entryDx=0;entryDy=0;" parent="1" source="x4oSmUCFtUbBl051vg65-1" target="WEo1hAUWuw4E-SvqwvUK-9" edge="1">
          <mxGeometry relative="1" as="geometry" />
        </mxCell>
        <mxCell id="x4oSmUCFtUbBl051vg65-1" value="SH1" style="rhombus;whiteSpace=wrap;html=1;fontSize=18;rounded=0;" parent="1" vertex="1">
          <mxGeometry x="200" y="1315" width="80" height="70" as="geometry" />
        </mxCell>
        <mxCell id="x4oSmUCFtUbBl051vg65-4" value="0" style="text;strokeColor=none;align=center;fillColor=none;html=1;verticalAlign=middle;whiteSpace=wrap;rounded=0;fontSize=18;" parent="1" vertex="1">
          <mxGeometry x="140" y="1110" width="60" height="30" as="geometry" />
        </mxCell>
        <mxCell id="x4oSmUCFtUbBl051vg65-10" value="1" style="text;strokeColor=none;align=center;fillColor=none;html=1;verticalAlign=middle;whiteSpace=wrap;rounded=0;fontSize=18;" parent="1" vertex="1">
          <mxGeometry x="230" y="1200" width="60" height="30" as="geometry" />
        </mxCell>
        <mxCell id="aMUW2iO1xXG_d0LfAeFW-6" value="" style="edgeStyle=orthogonalEdgeStyle;rounded=0;orthogonalLoop=1;jettySize=auto;html=1;" parent="1" source="aMUW2iO1xXG_d0LfAeFW-3" target="aMUW2iO1xXG_d0LfAeFW-5" edge="1">
          <mxGeometry relative="1" as="geometry" />
        </mxCell>
        <mxCell id="WEo1hAUWuw4E-SvqwvUK-37" style="edgeStyle=orthogonalEdgeStyle;rounded=0;orthogonalLoop=1;jettySize=auto;html=1;exitX=0.5;exitY=0;exitDx=0;exitDy=0;" parent="1" source="aMUW2iO1xXG_d0LfAeFW-3" edge="1">
          <mxGeometry relative="1" as="geometry">
            <mxPoint x="-239" y="630" as="targetPoint" />
          </mxGeometry>
        </mxCell>
        <mxCell id="aMUW2iO1xXG_d0LfAeFW-3" value="&lt;font style=&quot;font-size: 18px;&quot;&gt;0&amp;nbsp; 0&amp;nbsp; 1&amp;nbsp; 1&amp;nbsp; 1&amp;nbsp; 0&amp;nbsp; 1&amp;nbsp; 0&amp;nbsp; | 16&amp;nbsp;&lt;/font&gt;" style="whiteSpace=wrap;html=1;" parent="1" vertex="1">
          <mxGeometry x="-356.25" y="620" width="232.5" height="50" as="geometry" />
        </mxCell>
        <mxCell id="aMUW2iO1xXG_d0LfAeFW-10" value="" style="edgeStyle=orthogonalEdgeStyle;rounded=0;orthogonalLoop=1;jettySize=auto;html=1;" parent="1" source="aMUW2iO1xXG_d0LfAeFW-5" target="aMUW2iO1xXG_d0LfAeFW-9" edge="1">
          <mxGeometry relative="1" as="geometry" />
        </mxCell>
        <mxCell id="WEo1hAUWuw4E-SvqwvUK-39" style="edgeStyle=orthogonalEdgeStyle;rounded=0;orthogonalLoop=1;jettySize=auto;html=1;exitX=0;exitY=0.5;exitDx=0;exitDy=0;entryX=0;entryY=0.5;entryDx=0;entryDy=0;" parent="1" source="aMUW2iO1xXG_d0LfAeFW-5" target="aMUW2iO1xXG_d0LfAeFW-3" edge="1">
          <mxGeometry relative="1" as="geometry">
            <mxPoint x="-490" y="570" as="targetPoint" />
            <Array as="points">
              <mxPoint x="-410" y="750" />
              <mxPoint x="-410" y="645" />
            </Array>
          </mxGeometry>
        </mxCell>
        <mxCell id="aMUW2iO1xXG_d0LfAeFW-5" value="Tout2" style="rhombus;whiteSpace=wrap;html=1;fontSize=18;rounded=0;" parent="1" vertex="1">
          <mxGeometry x="-280" y="710" width="80" height="80" as="geometry" />
        </mxCell>
        <mxCell id="aMUW2iO1xXG_d0LfAeFW-8" value="0" style="text;strokeColor=none;align=center;fillColor=none;html=1;verticalAlign=middle;whiteSpace=wrap;rounded=0;fontSize=18;" parent="1" vertex="1">
          <mxGeometry x="-415" y="680" width="60" height="30" as="geometry" />
        </mxCell>
        <mxCell id="aMUW2iO1xXG_d0LfAeFW-13" value="" style="edgeStyle=orthogonalEdgeStyle;rounded=0;orthogonalLoop=1;jettySize=auto;html=1;" parent="1" source="aMUW2iO1xXG_d0LfAeFW-9" target="aMUW2iO1xXG_d0LfAeFW-12" edge="1">
          <mxGeometry relative="1" as="geometry" />
        </mxCell>
        <mxCell id="aMUW2iO1xXG_d0LfAeFW-9" value="0&amp;nbsp; 0&amp;nbsp; 0&amp;nbsp; 1&amp;nbsp; 1&amp;nbsp; 0&amp;nbsp; 1&amp;nbsp; 0&amp;nbsp;&amp;nbsp;| 17" style="whiteSpace=wrap;html=1;fontSize=18;rounded=0;" parent="1" vertex="1">
          <mxGeometry x="-347.5" y="830" width="215" height="40" as="geometry" />
        </mxCell>
        <mxCell id="aMUW2iO1xXG_d0LfAeFW-11" value="1" style="text;strokeColor=none;align=center;fillColor=none;html=1;verticalAlign=middle;whiteSpace=wrap;rounded=0;fontSize=18;" parent="1" vertex="1">
          <mxGeometry x="-250" y="790" width="60" height="30" as="geometry" />
        </mxCell>
        <mxCell id="aMUW2iO1xXG_d0LfAeFW-15" value="" style="edgeStyle=orthogonalEdgeStyle;rounded=0;orthogonalLoop=1;jettySize=auto;html=1;" parent="1" source="aMUW2iO1xXG_d0LfAeFW-12" target="aMUW2iO1xXG_d0LfAeFW-14" edge="1">
          <mxGeometry relative="1" as="geometry" />
        </mxCell>
        <mxCell id="aMUW2iO1xXG_d0LfAeFW-17" value="" style="edgeStyle=orthogonalEdgeStyle;rounded=0;orthogonalLoop=1;jettySize=auto;html=1;" parent="1" source="aMUW2iO1xXG_d0LfAeFW-12" target="aMUW2iO1xXG_d0LfAeFW-16" edge="1">
          <mxGeometry relative="1" as="geometry" />
        </mxCell>
        <mxCell id="aMUW2iO1xXG_d0LfAeFW-12" value="SH2" style="rhombus;whiteSpace=wrap;html=1;fontSize=18;rounded=0;" parent="1" vertex="1">
          <mxGeometry x="-280" y="930" width="80" height="80" as="geometry" />
        </mxCell>
        <mxCell id="aMUW2iO1xXG_d0LfAeFW-21" value="" style="edgeStyle=orthogonalEdgeStyle;rounded=0;orthogonalLoop=1;jettySize=auto;html=1;" parent="1" source="aMUW2iO1xXG_d0LfAeFW-14" target="aMUW2iO1xXG_d0LfAeFW-20" edge="1">
          <mxGeometry relative="1" as="geometry" />
        </mxCell>
        <mxCell id="aMUW2iO1xXG_d0LfAeFW-14" value="0&amp;nbsp; 0&amp;nbsp; 0&amp;nbsp; 1&amp;nbsp; 1&amp;nbsp; 0&amp;nbsp; 1&amp;nbsp; 0&amp;nbsp;&amp;nbsp;| 18&amp;nbsp;" style="whiteSpace=wrap;html=1;fontSize=18;rounded=0;" parent="1" vertex="1">
          <mxGeometry x="-345" y="1100" width="210" height="40" as="geometry" />
        </mxCell>
        <mxCell id="aMUW2iO1xXG_d0LfAeFW-29" value="" style="edgeStyle=orthogonalEdgeStyle;rounded=0;orthogonalLoop=1;jettySize=auto;html=1;entryX=0.5;entryY=0;entryDx=0;entryDy=0;" parent="1" source="aMUW2iO1xXG_d0LfAeFW-16" target="WEo1hAUWuw4E-SvqwvUK-22" edge="1">
          <mxGeometry relative="1" as="geometry">
            <mxPoint x="-435" y="1040" as="targetPoint" />
          </mxGeometry>
        </mxCell>
        <mxCell id="aMUW2iO1xXG_d0LfAeFW-16" value="1&amp;nbsp; 0&amp;nbsp; 0&amp;nbsp; 1&amp;nbsp; 1&amp;nbsp; 0&amp;nbsp; 1&amp;nbsp; 0&amp;nbsp;&amp;nbsp;| 21&amp;nbsp;" style="whiteSpace=wrap;html=1;fontSize=18;rounded=0;" parent="1" vertex="1">
          <mxGeometry x="-535" y="950" width="200" height="40" as="geometry" />
        </mxCell>
        <mxCell id="aMUW2iO1xXG_d0LfAeFW-18" value="1" style="text;strokeColor=none;align=center;fillColor=none;html=1;verticalAlign=middle;whiteSpace=wrap;rounded=0;fontSize=18;" parent="1" vertex="1">
          <mxGeometry x="-335" y="940" width="60" height="30" as="geometry" />
        </mxCell>
        <mxCell id="aMUW2iO1xXG_d0LfAeFW-19" value="0" style="text;strokeColor=none;align=center;fillColor=none;html=1;verticalAlign=middle;whiteSpace=wrap;rounded=0;fontSize=18;" parent="1" vertex="1">
          <mxGeometry x="-250" y="1040" width="60" height="30" as="geometry" />
        </mxCell>
        <mxCell id="aMUW2iO1xXG_d0LfAeFW-23" value="" style="edgeStyle=orthogonalEdgeStyle;rounded=0;orthogonalLoop=1;jettySize=auto;html=1;" parent="1" source="aMUW2iO1xXG_d0LfAeFW-20" target="aMUW2iO1xXG_d0LfAeFW-22" edge="1">
          <mxGeometry relative="1" as="geometry" />
        </mxCell>
        <mxCell id="aMUW2iO1xXG_d0LfAeFW-25" value="" style="edgeStyle=orthogonalEdgeStyle;rounded=0;orthogonalLoop=1;jettySize=auto;html=1;" parent="1" source="aMUW2iO1xXG_d0LfAeFW-20" target="aMUW2iO1xXG_d0LfAeFW-24" edge="1">
          <mxGeometry relative="1" as="geometry" />
        </mxCell>
        <mxCell id="aMUW2iO1xXG_d0LfAeFW-20" value="SH1" style="rhombus;whiteSpace=wrap;html=1;fontSize=18;rounded=0;" parent="1" vertex="1">
          <mxGeometry x="-280" y="1200" width="80" height="80" as="geometry" />
        </mxCell>
        <mxCell id="aMUW2iO1xXG_d0LfAeFW-35" style="edgeStyle=orthogonalEdgeStyle;rounded=0;orthogonalLoop=1;jettySize=auto;html=1;" parent="1" source="aMUW2iO1xXG_d0LfAeFW-22" target="Tdp-Z54inAdNcihTfjA5-2" edge="1">
          <mxGeometry relative="1" as="geometry">
            <mxPoint x="-750" y="40" as="targetPoint" />
            <Array as="points">
              <mxPoint x="-30" y="1500" />
              <mxPoint x="-750" y="1500" />
              <mxPoint x="-750" y="45" />
            </Array>
          </mxGeometry>
        </mxCell>
        <mxCell id="aMUW2iO1xXG_d0LfAeFW-22" value="0&amp;nbsp; 0&amp;nbsp; 0&amp;nbsp; 1&amp;nbsp; 1&amp;nbsp; 1&amp;nbsp; 0&amp;nbsp; 1&amp;nbsp;&amp;nbsp;| 19&amp;nbsp;" style="whiteSpace=wrap;html=1;fontSize=18;rounded=0;" parent="1" vertex="1">
          <mxGeometry x="-140" y="1220" width="220" height="40" as="geometry" />
        </mxCell>
        <mxCell id="aMUW2iO1xXG_d0LfAeFW-34" style="edgeStyle=orthogonalEdgeStyle;rounded=0;orthogonalLoop=1;jettySize=auto;html=1;" parent="1" source="aMUW2iO1xXG_d0LfAeFW-24" target="Tdp-Z54inAdNcihTfjA5-2" edge="1">
          <mxGeometry relative="1" as="geometry">
            <mxPoint x="-700" y="1470" as="targetPoint" />
            <Array as="points">
              <mxPoint x="-240" y="1480" />
              <mxPoint x="-700" y="1480" />
              <mxPoint x="-700" y="45" />
            </Array>
          </mxGeometry>
        </mxCell>
        <mxCell id="aMUW2iO1xXG_d0LfAeFW-24" value="0&amp;nbsp; 0&amp;nbsp; 0&amp;nbsp; 1&amp;nbsp; 1&amp;nbsp; 1&amp;nbsp; 1&amp;nbsp; 0&amp;nbsp;&amp;nbsp;| 20&amp;nbsp;" style="whiteSpace=wrap;html=1;fontSize=18;rounded=0;" parent="1" vertex="1">
          <mxGeometry x="-345" y="1330" width="210" height="40" as="geometry" />
        </mxCell>
        <mxCell id="aMUW2iO1xXG_d0LfAeFW-26" value="0" style="text;strokeColor=none;align=center;fillColor=none;html=1;verticalAlign=middle;whiteSpace=wrap;rounded=0;fontSize=18;" parent="1" vertex="1">
          <mxGeometry x="-210" y="1200" width="60" height="30" as="geometry" />
        </mxCell>
        <mxCell id="aMUW2iO1xXG_d0LfAeFW-27" value="1" style="text;strokeColor=none;align=center;fillColor=none;html=1;verticalAlign=middle;whiteSpace=wrap;rounded=0;fontSize=18;" parent="1" vertex="1">
          <mxGeometry x="-290" y="1300" width="60" height="30" as="geometry" />
        </mxCell>
        <mxCell id="aMUW2iO1xXG_d0LfAeFW-30" style="edgeStyle=orthogonalEdgeStyle;rounded=0;orthogonalLoop=1;jettySize=auto;html=1;entryX=0;entryY=0.25;entryDx=0;entryDy=0;exitX=0;exitY=0.5;exitDx=0;exitDy=0;" parent="1" source="WEo1hAUWuw4E-SvqwvUK-22" target="aMUW2iO1xXG_d0LfAeFW-16" edge="1">
          <mxGeometry relative="1" as="geometry">
            <mxPoint x="-590" y="960" as="targetPoint" />
            <Array as="points">
              <mxPoint x="-600" y="1100" />
              <mxPoint x="-600" y="960" />
            </Array>
            <mxPoint x="-474.99999999999955" y="1080.0000000000005" as="sourcePoint" />
          </mxGeometry>
        </mxCell>
        <mxCell id="aMUW2iO1xXG_d0LfAeFW-33" style="edgeStyle=orthogonalEdgeStyle;rounded=0;orthogonalLoop=1;jettySize=auto;html=1;exitX=0.5;exitY=1;exitDx=0;exitDy=0;" parent="1" source="WEo1hAUWuw4E-SvqwvUK-18" target="Tdp-Z54inAdNcihTfjA5-2" edge="1">
          <mxGeometry relative="1" as="geometry">
            <mxPoint x="-640" y="1300" as="targetPoint" />
            <Array as="points">
              <mxPoint x="-405" y="1450" />
              <mxPoint x="-660" y="1450" />
              <mxPoint x="-660" y="45" />
            </Array>
            <mxPoint x="-460" y="1350" as="sourcePoint" />
          </mxGeometry>
        </mxCell>
        <mxCell id="aMUW2iO1xXG_d0LfAeFW-31" value="0" style="text;strokeColor=none;align=center;fillColor=none;html=1;verticalAlign=middle;whiteSpace=wrap;rounded=0;fontSize=18;" parent="1" vertex="1">
          <mxGeometry x="-620" y="1020" width="60" height="30" as="geometry" />
        </mxCell>
        <mxCell id="WEo1hAUWuw4E-SvqwvUK-5" style="edgeStyle=orthogonalEdgeStyle;rounded=0;orthogonalLoop=1;jettySize=auto;html=1;exitX=0.5;exitY=1;exitDx=0;exitDy=0;entryX=0.5;entryY=0;entryDx=0;entryDy=0;" parent="1" source="WEo1hAUWuw4E-SvqwvUK-1" target="WEo1hAUWuw4E-SvqwvUK-12" edge="1">
          <mxGeometry relative="1" as="geometry">
            <mxPoint x="240" y="1220" as="targetPoint" />
          </mxGeometry>
        </mxCell>
        <mxCell id="WEo1hAUWuw4E-SvqwvUK-7" style="edgeStyle=orthogonalEdgeStyle;rounded=0;orthogonalLoop=1;jettySize=auto;html=1;exitX=0;exitY=0.5;exitDx=0;exitDy=0;entryX=0;entryY=0.25;entryDx=0;entryDy=0;" parent="1" source="WEo1hAUWuw4E-SvqwvUK-1" target="AviYknSwdxqlnNg75itp-30" edge="1">
          <mxGeometry relative="1" as="geometry">
            <mxPoint x="30" y="1030" as="targetPoint" />
          </mxGeometry>
        </mxCell>
        <mxCell id="WEo1hAUWuw4E-SvqwvUK-1" value="Tout" style="rhombus;whiteSpace=wrap;html=1;fontSize=18;rounded=0;" parent="1" vertex="1">
          <mxGeometry x="200" y="1100" width="80" height="80" as="geometry" />
        </mxCell>
        <mxCell id="WEo1hAUWuw4E-SvqwvUK-2" style="edgeStyle=orthogonalEdgeStyle;rounded=0;orthogonalLoop=1;jettySize=auto;html=1;exitX=0.5;exitY=1;exitDx=0;exitDy=0;" parent="1" source="x4oSmUCFtUbBl051vg65-10" target="x4oSmUCFtUbBl051vg65-10" edge="1">
          <mxGeometry relative="1" as="geometry" />
        </mxCell>
        <mxCell id="WEo1hAUWuw4E-SvqwvUK-6" value="1" style="text;strokeColor=none;align=center;fillColor=none;html=1;verticalAlign=middle;whiteSpace=wrap;rounded=0;fontSize=18;" parent="1" vertex="1">
          <mxGeometry x="220" y="1420" width="60" height="30" as="geometry" />
        </mxCell>
        <mxCell id="dG1vp18cjvT6daIUe9hR-2" style="edgeStyle=orthogonalEdgeStyle;rounded=0;orthogonalLoop=1;jettySize=auto;html=1;entryX=0.869;entryY=0;entryDx=0;entryDy=0;entryPerimeter=0;" parent="1" source="WEo1hAUWuw4E-SvqwvUK-9" target="Tdp-Z54inAdNcihTfjA5-2" edge="1">
          <mxGeometry relative="1" as="geometry">
            <mxPoint x="810" y="-30" as="targetPoint" />
            <Array as="points">
              <mxPoint x="110" y="1510" />
              <mxPoint x="840" y="1510" />
              <mxPoint x="840" y="-10" />
              <mxPoint x="560" y="-10" />
            </Array>
          </mxGeometry>
        </mxCell>
        <mxCell id="WEo1hAUWuw4E-SvqwvUK-9" value="0&amp;nbsp; 0&amp;nbsp; 0&amp;nbsp; 0&amp;nbsp; 0&amp;nbsp; 1&amp;nbsp; 1&amp;nbsp; 1&amp;nbsp;&amp;nbsp;| 11&amp;nbsp;" style="whiteSpace=wrap;html=1;fontSize=18;rounded=0;" parent="1" vertex="1">
          <mxGeometry x="10" y="1390" width="210" height="40" as="geometry" />
        </mxCell>
        <mxCell id="WEo1hAUWuw4E-SvqwvUK-11" value="0" style="text;strokeColor=none;align=center;fillColor=none;html=1;verticalAlign=middle;whiteSpace=wrap;rounded=0;fontSize=18;" parent="1" vertex="1">
          <mxGeometry x="95" y="1310" width="60" height="30" as="geometry" />
        </mxCell>
        <mxCell id="WEo1hAUWuw4E-SvqwvUK-14" style="edgeStyle=orthogonalEdgeStyle;rounded=0;orthogonalLoop=1;jettySize=auto;html=1;exitX=0.5;exitY=1;exitDx=0;exitDy=0;entryX=0.5;entryY=0;entryDx=0;entryDy=0;" parent="1" source="WEo1hAUWuw4E-SvqwvUK-12" target="x4oSmUCFtUbBl051vg65-1" edge="1">
          <mxGeometry relative="1" as="geometry" />
        </mxCell>
        <mxCell id="WEo1hAUWuw4E-SvqwvUK-12" value="0&amp;nbsp; 0&amp;nbsp; 0&amp;nbsp; 0&amp;nbsp; 0&amp;nbsp; 0&amp;nbsp; 0&amp;nbsp; 1&amp;nbsp;&amp;nbsp;| 10&amp;nbsp;" style="whiteSpace=wrap;html=1;fontSize=18;rounded=0;" parent="1" vertex="1">
          <mxGeometry x="133" y="1240" width="215" height="40" as="geometry" />
        </mxCell>
        <mxCell id="WEo1hAUWuw4E-SvqwvUK-17" style="edgeStyle=orthogonalEdgeStyle;rounded=0;orthogonalLoop=1;jettySize=auto;html=1;exitX=0;exitY=0.5;exitDx=0;exitDy=0;entryX=0.5;entryY=0;entryDx=0;entryDy=0;" parent="1" source="WEo1hAUWuw4E-SvqwvUK-18" target="WEo1hAUWuw4E-SvqwvUK-32" edge="1">
          <mxGeometry relative="1" as="geometry">
            <mxPoint x="-540" y="1340" as="targetPoint" />
          </mxGeometry>
        </mxCell>
        <mxCell id="WEo1hAUWuw4E-SvqwvUK-18" value="SH1" style="rhombus;whiteSpace=wrap;html=1;fontSize=18;rounded=0;" parent="1" vertex="1">
          <mxGeometry x="-445" y="1265" width="80" height="70" as="geometry" />
        </mxCell>
        <mxCell id="WEo1hAUWuw4E-SvqwvUK-20" value="1" style="text;strokeColor=none;align=center;fillColor=none;html=1;verticalAlign=middle;whiteSpace=wrap;rounded=0;fontSize=18;" parent="1" vertex="1">
          <mxGeometry x="-415" y="1150" width="60" height="30" as="geometry" />
        </mxCell>
        <mxCell id="WEo1hAUWuw4E-SvqwvUK-21" style="edgeStyle=orthogonalEdgeStyle;rounded=0;orthogonalLoop=1;jettySize=auto;html=1;exitX=0.5;exitY=1;exitDx=0;exitDy=0;entryX=0.5;entryY=0;entryDx=0;entryDy=0;" parent="1" source="WEo1hAUWuw4E-SvqwvUK-22" target="WEo1hAUWuw4E-SvqwvUK-27" edge="1">
          <mxGeometry relative="1" as="geometry">
            <mxPoint x="-405" y="1170" as="targetPoint" />
          </mxGeometry>
        </mxCell>
        <mxCell id="WEo1hAUWuw4E-SvqwvUK-22" value="Tout" style="rhombus;whiteSpace=wrap;html=1;fontSize=18;rounded=0;" parent="1" vertex="1">
          <mxGeometry x="-475" y="1060" width="80" height="80" as="geometry" />
        </mxCell>
        <mxCell id="WEo1hAUWuw4E-SvqwvUK-23" style="edgeStyle=orthogonalEdgeStyle;rounded=0;orthogonalLoop=1;jettySize=auto;html=1;exitX=0.5;exitY=1;exitDx=0;exitDy=0;" parent="1" source="WEo1hAUWuw4E-SvqwvUK-20" target="WEo1hAUWuw4E-SvqwvUK-20" edge="1">
          <mxGeometry relative="1" as="geometry" />
        </mxCell>
        <mxCell id="WEo1hAUWuw4E-SvqwvUK-24" value="1" style="text;strokeColor=none;align=center;fillColor=none;html=1;verticalAlign=middle;whiteSpace=wrap;rounded=0;fontSize=18;" parent="1" vertex="1">
          <mxGeometry x="-415" y="1370" width="60" height="30" as="geometry" />
        </mxCell>
        <mxCell id="WEo1hAUWuw4E-SvqwvUK-25" value="0" style="text;strokeColor=none;align=center;fillColor=none;html=1;verticalAlign=middle;whiteSpace=wrap;rounded=0;fontSize=18;" parent="1" vertex="1">
          <mxGeometry x="-550" y="1260" width="60" height="30" as="geometry" />
        </mxCell>
        <mxCell id="WEo1hAUWuw4E-SvqwvUK-26" style="edgeStyle=orthogonalEdgeStyle;rounded=0;orthogonalLoop=1;jettySize=auto;html=1;exitX=0.5;exitY=1;exitDx=0;exitDy=0;entryX=0.5;entryY=0;entryDx=0;entryDy=0;" parent="1" source="WEo1hAUWuw4E-SvqwvUK-27" target="WEo1hAUWuw4E-SvqwvUK-18" edge="1">
          <mxGeometry relative="1" as="geometry" />
        </mxCell>
        <mxCell id="WEo1hAUWuw4E-SvqwvUK-27" value="0&amp;nbsp; 0&amp;nbsp; 0&amp;nbsp; 1&amp;nbsp; 0&amp;nbsp; 0 1 0&amp;nbsp;&amp;nbsp;| 22&amp;nbsp;" style="whiteSpace=wrap;html=1;fontSize=18;rounded=0;" parent="1" vertex="1">
          <mxGeometry x="-505" y="1190" width="200" height="40" as="geometry" />
        </mxCell>
        <mxCell id="dG1vp18cjvT6daIUe9hR-3" style="edgeStyle=orthogonalEdgeStyle;rounded=0;orthogonalLoop=1;jettySize=auto;html=1;" parent="1" source="WEo1hAUWuw4E-SvqwvUK-32" target="Tdp-Z54inAdNcihTfjA5-2" edge="1">
          <mxGeometry relative="1" as="geometry">
            <mxPoint x="-780" y="40" as="targetPoint" />
            <Array as="points">
              <mxPoint x="-540" y="1520" />
              <mxPoint x="-790" y="1520" />
              <mxPoint x="-790" y="45" />
            </Array>
          </mxGeometry>
        </mxCell>
        <mxCell id="WEo1hAUWuw4E-SvqwvUK-32" value="0&amp;nbsp; 0&amp;nbsp; 0&amp;nbsp; 1 0&amp;nbsp; 1&amp;nbsp; 1&amp;nbsp; 1&amp;nbsp;&amp;nbsp;| 23&amp;nbsp;" style="whiteSpace=wrap;html=1;fontSize=18;rounded=0;" parent="1" vertex="1">
          <mxGeometry x="-650" y="1350" width="200" height="40" as="geometry" />
        </mxCell>
      </root>
    </mxGraphModel>
  </diagram>
</mxfile>
